<?xml version="1.0" encoding="utf-8"?>
<!-- Generator: Adobe Illustrator 14.0.0, SVG Export Plug-In . SVG Version: 6.00 Build 43363)  -->
<!DOCTYPE svg PUBLIC "-//W3C//DTD SVG 1.0//EN" "http://www.w3.org/TR/2001/REC-SVG-20010904/DTD/svg10.dtd">
<svg version="1.0" id="Layer_1" xmlns="http://www.w3.org/2000/svg" xmlns:xlink="http://www.w3.org/1999/xlink" x="0px" y="0px"
	 width="61.002px" height="100px" viewBox="0 0 61.002 100" enable-background="new 0 0 61.002 100" xml:space="preserve">
<path d="M30.5,64.167c8.275,0,14.983-6.771,14.983-15.128c0-5.273,0-27.576,0-33.91C45.484,6.773,38.776,0,30.5,0
	c-8.275,0-14.983,6.773-14.983,15.129c0,4.959,0,29.125,0,33.91C15.517,57.396,22.226,64.167,30.5,64.167z"/>
<path d="M50.917,39.451v12.922c0,9.38-7.632,17.013-17.013,17.013h-6.807c-9.381,0-17.014-7.633-17.014-17.013V39.451H0v12.922
	c0,14.39,11.277,26.192,25.459,27.043v10.503H10.333V100h40.336V89.919H35.542V79.416c14.181-0.851,25.46-12.653,25.46-27.043
	V39.451H50.917z"/>
<path d="M35.542,89.919L35.542,89.919c0,0,0,0,0-0.002l0,0l0,0l0,0l0,0l0,0h-0.002c0,0,0,0-0.002,0v0.002
	c0.002,0,0.002-0.002,0.002-0.002v0.002H35.542L35.542,89.919L35.542,89.919L35.542,89.919L35.542,89.919L35.542,89.919
	L35.542,89.919z M35.542,89.919L35.542,89.919L35.542,89.919v-0.002l0,0l0,0l0,0C35.542,89.919,35.542,89.919,35.542,89.919
	L35.542,89.919L35.542,89.919L35.542,89.919z M35.542,89.919L35.542,89.919L35.542,89.919L35.542,89.919L35.542,89.919
	L35.542,89.919L35.542,89.919z M35.542,89.919L35.542,89.919L35.542,89.919L35.542,89.919L35.542,89.919z M35.542,89.919
	c0,0,0,0,0-0.002l0,0l0,0C35.542,89.919,35.542,89.919,35.542,89.919z"/>
</svg>
